<svg width="40" height="40" viewBox="0 0 40 40" fill="none" xmlns="http://www.w3.org/2000/svg">
<path fill-rule="evenodd" clip-rule="evenodd" d="M24 40H16C7.1636 40 0 32.8364 0 24V16C0 7.1636 7.1636 0 16 0H24C32.8364 0 40 7.1636 40 16V24C40 32.8364 32.8364 40 24 40Z" fill="#FFC125"/>
<path fill-rule="evenodd" clip-rule="evenodd" d="M26.9456 13.6548C27.1132 13.6176 27.2788 13.6 27.44 13.6C28.942 13.6 30.0856 15.1328 29.3924 16.7192C29.2 17.1604 28.8408 17.5196 28.3992 17.7124C26.6424 18.48 24.9516 16.9952 25.3352 15.2656C25.5112 14.4716 26.152 13.8308 26.9456 13.6548ZM10.8 13.9196H14C14.2208 13.9196 14.4 14.0992 14.4 14.3196V20.208C14.4 23.1812 16.876 25.6 19.92 25.6C22.8368 25.6 25.2328 23.3784 25.4272 20.5764C25.442 20.3664 25.6256 20.208 25.836 20.208H29.0292C29.2544 20.208 29.4408 20.394 29.4312 20.6188C29.2124 25.6076 25.0296 29.6 19.92 29.6C14.6708 29.6 10.4 25.3864 10.4 20.208V14.3196C10.4 14.0992 10.5788 13.9196 10.8 13.9196Z" fill="white"/>
</svg>
