<svg width="156" height="40" viewBox="0 0 156 40" fill="none" xmlns="http://www.w3.org/2000/svg">
<g clip-path="url(#clip0_11_10)">
<path d="M41.4508 30.3268V0.0435486H46.1558V11.9824C47.6375 9.77561 49.8598 8.67179 52.8225 8.67101C55.3496 8.67101 57.3031 9.41896 58.6831 10.9149C60.0631 12.4108 60.7533 14.495 60.7535 17.1677V30.3268H56.0483V17.8213C56.0483 14.3649 54.5086 12.6365 51.4293 12.636C49.8893 12.636 48.6258 13.1008 47.6386 14.0303C46.6516 14.9599 46.1575 16.2671 46.1566 17.952V30.3265L41.4508 30.3268Z" fill="#030303"/>
<path d="M82.9897 27.7132C80.8982 29.8047 78.2695 30.8504 75.1032 30.8504C71.937 30.8504 69.3009 29.8047 67.1945 27.7132C65.0884 25.6215 64.0354 22.9632 64.0355 19.738C64.0357 16.5131 65.0887 13.8626 67.1945 11.7866C69.3005 9.71005 71.9367 8.67157 75.1032 8.67108C78.2697 8.67062 80.8985 9.70911 82.9897 11.7866C85.0815 13.8638 86.1274 16.5144 86.1272 19.738C86.127 22.9618 85.0812 25.6202 82.9897 27.7132ZM70.637 25.0548C71.7545 26.362 73.2434 27.0157 75.1032 27.0157C76.9632 27.0157 78.4519 26.362 79.5694 25.0548C80.6872 23.7477 81.2464 21.9755 81.2469 19.738C81.2469 17.5307 80.6805 15.7732 79.5477 14.4659C78.4149 13.1585 76.9334 12.5049 75.1032 12.505C73.2439 12.505 71.755 13.1513 70.637 14.444C69.5189 15.7366 68.9597 17.501 68.9594 19.7372C68.9594 21.9755 69.5185 23.748 70.637 25.0548Z" fill="#030303"/>
<path d="M97.0183 30.8497C92.6897 30.8497 90.5253 28.5257 90.5253 23.8778V13.159H87.2582V9.19403H90.6568L91.7463 2.96426H95.2752V9.19403H103.685V13.159H95.2755V23.7473C95.2755 25.6938 95.9872 26.667 97.4105 26.6668C98.7463 26.6668 99.9518 25.4467 101.027 23.0065L104.687 24.8803C102.886 28.8603 100.33 30.85 97.0183 30.8497Z" fill="#030303"/>
<path d="M106.2 40C104.108 40 102.38 39.419 101.015 38.257L102.758 34.5533C103.6 35.5405 104.515 36.0345 105.503 36.0355C106.81 36.0355 107.463 35.1932 107.463 33.5083V9.19398H112.168V33.5943C112.168 35.8602 111.609 37.4942 110.491 38.4962C109.372 39.4983 107.942 39.9995 106.2 40ZM109.816 5.62072C109.043 5.64697 108.29 5.36492 107.725 4.83662C107.453 4.58018 107.238 4.26888 107.096 3.92335C106.953 3.57782 106.885 3.2059 106.897 2.83225C106.887 2.45553 106.955 2.08078 107.097 1.73192C107.24 1.38304 107.454 1.0677 107.725 0.806013C108.294 0.287445 109.036 0 109.805 0C110.575 0 111.317 0.287445 111.886 0.806013C112.163 1.06445 112.382 1.37868 112.528 1.72797C112.675 2.07723 112.746 2.45362 112.736 2.83225C112.743 3.20403 112.67 3.57302 112.524 3.91478C112.377 4.25655 112.16 4.5633 111.886 4.81473C111.611 5.07872 111.287 5.2858 110.932 5.4241C110.576 5.56242 110.197 5.62923 109.816 5.62072Z" fill="#030303"/>
<path d="M123.855 30.85C121.444 30.85 119.49 30.2472 117.995 29.0418C116.499 27.8363 115.751 26.2173 115.751 24.1845C115.751 22.3255 116.528 20.7493 118.082 19.4558C119.636 18.1625 121.59 17.5162 123.942 17.517C126.354 17.517 128.387 18.2868 130.043 19.8265V17.2553C130.043 15.7454 129.658 14.5762 128.888 13.7478C128.118 12.9194 127.021 12.5054 125.598 12.5059C122.723 12.5059 120.936 13.9728 120.239 16.9065L115.925 15.9916C116.505 13.726 117.653 11.9395 119.367 10.6323C121.082 9.32508 123.217 8.67148 125.772 8.67148C128.561 8.67148 130.762 9.405 132.374 10.872C133.986 12.3391 134.792 14.4813 134.792 17.2987V30.3272H130.217V27.6688C128.677 29.7898 126.556 30.8503 123.855 30.85ZM124.726 27.3642C126.818 27.3642 128.59 26.3185 130.043 24.2272V23.5728C128.59 21.83 126.817 20.9585 124.726 20.9587C123.506 20.9587 122.518 21.2567 121.762 21.8527C121.404 22.116 121.115 22.461 120.918 22.859C120.721 23.2568 120.622 23.6962 120.629 24.14C120.617 24.5887 120.712 25.0337 120.905 25.4388C121.098 25.8438 121.384 26.1977 121.74 26.4712C122.482 27.0667 123.478 27.3643 124.727 27.3642H124.726Z" fill="#030303"/>
<path d="M139.371 30.3268V9.19387H143.946V12.8539C145.108 10.1816 147.112 8.84536 149.959 8.84521C151.643 8.84521 153.038 9.39712 154.142 10.5009C155.247 11.6047 155.798 13.0862 155.797 14.9453C155.786 16.058 155.595 17.1617 155.231 18.2133L150.917 17.7777C151.006 17.2002 151.064 16.6184 151.091 16.0348C151.091 13.8562 150.191 12.7668 148.39 12.7667C147.17 12.7667 146.146 13.413 145.318 14.7056C144.491 15.9983 144.077 17.705 144.076 19.8258V30.3268H139.371Z" fill="#030303"/>
<path d="M12.0636 12.4273C15.5703 10.4792 20.373 7.81046 20.373 0.0435486H14.5575C14.5575 4.38916 12.4419 5.56449 9.23939 7.34371C5.73271 9.29256 0.929993 11.9601 0.929993 19.7278H6.74548C6.74548 15.3819 8.86111 14.2065 12.0636 12.4273Z" fill="#030303"/>
<path d="M22.1291 10.6425C22.1291 14.9883 20.0135 16.1637 16.811 17.9427C13.3052 19.8908 8.50159 22.5592 8.50159 30.3267H14.3168C14.3168 25.9808 16.4325 24.8055 19.635 23.0263C23.1416 21.0782 27.9441 18.4102 27.9441 10.6425H22.1291Z" fill="#030303"/>
</g>
<defs>
<clipPath id="clip0_11_10">
<rect width="155" height="40" fill="white" transform="translate(0.929993)"/>
</clipPath>
</defs>
</svg>
