<svg width="128" height="40" viewBox="0 0 128 40" fill="none" xmlns="http://www.w3.org/2000/svg">
<g clip-path="url(#clip0_11_6)">
<path d="M15.9689 14.2727V18.5455H26.2802C26.0064 20.9091 25.1852 22.7273 23.9077 23.9091C22.4476 25.3636 20.0751 27 15.9689 27C9.67256 27 4.74503 21.9091 4.74503 15.6364C4.74503 9.36364 9.58131 4.27273 15.9689 4.27273C19.3451 4.27273 21.9001 5.63636 23.7252 7.36364L26.7364 4.36364C24.1814 1.90909 20.7139 0 15.9689 0C7.30005 0 0 7 0 15.6364C0 24.2727 7.30005 31.2727 15.9689 31.2727C20.6226 31.2727 24.1814 29.7273 26.9189 26.9091C29.7477 24.0909 30.6602 20.0909 30.6602 16.9091C30.6602 15.9091 30.569 15 30.4777 14.2727H15.9689V14.2727Z" fill="#030303"/>
<path d="M43.4353 10.7273C37.869 10.7273 33.2152 15 33.2152 20.8182C33.2152 26.6364 37.7777 30.9091 43.4353 30.9091C49.0928 30.9091 53.6553 26.7273 53.6553 20.9091C53.6553 15 49.0928 10.7273 43.4353 10.7273ZM43.4353 27C40.3328 27 37.6865 24.4545 37.6865 20.9091C37.6865 17.2727 40.3328 14.8182 43.4353 14.8182C46.5378 14.8182 49.1841 17.2727 49.1841 20.9091C49.1841 24.4545 46.5378 27 43.4353 27Z" fill="#030303"/>
<path d="M93.3493 13H93.1668C92.1631 11.8182 90.2468 10.7273 87.783 10.7273C82.673 10.7273 78.293 15.0909 78.293 20.8182C78.293 26.4545 82.673 30.9091 87.783 30.9091C90.2468 30.9091 92.1631 29.8182 93.1668 28.6364H93.3493V30.0909C93.3493 33.9091 91.2506 36 87.9655 36C85.228 36 83.5855 34.0909 82.8555 32.3636L79.023 34C80.118 36.6364 83.1292 40 88.0568 40C93.2581 40 97.7293 36.9091 97.7293 29.4545V11.2727H93.5318V13H93.3493ZM88.2393 27C85.1368 27 82.8555 24.3636 82.8555 20.9091C82.8555 17.3636 85.228 14.8182 88.2393 14.8182C91.2505 14.8182 93.6231 17.4545 93.6231 21C93.7143 24.4545 91.3418 27 88.2393 27Z" fill="#030303"/>
<path d="M66.1567 10.7273C60.5904 10.7273 55.9366 15 55.9366 20.8182C55.9366 26.6364 60.4992 30.9091 66.1567 30.9091C71.8142 30.9091 76.3768 26.7273 76.3768 20.9091C76.3768 15 71.8142 10.7273 66.1567 10.7273ZM66.1567 27C63.0542 27 60.4079 24.4545 60.4079 20.9091C60.4079 17.2727 63.0542 14.8182 66.1567 14.8182C69.2592 14.8182 71.9055 17.2727 71.9055 20.9091C71.9055 24.4545 69.2592 27 66.1567 27Z" fill="#030303"/>
<path d="M101.106 0.454559H105.486V31H101.106V0.454559Z" fill="#030303"/>
<path d="M118.991 27C116.71 27 115.158 26 114.063 23.9091L127.66 18.3636L127.203 17.1818C126.382 14.9091 123.736 10.7273 118.535 10.7273C113.333 10.7273 108.953 14.8182 108.953 20.8182C108.953 26.4545 113.242 30.9091 118.991 30.9091C123.645 30.9091 126.291 28.0909 127.477 26.4545L124.01 24.1818C122.823 25.9091 121.272 27 118.991 27ZM118.717 14.5454C120.542 14.5454 122.093 15.4545 122.55 16.7273L113.425 20.5454C113.333 16.3636 116.436 14.5454 118.717 14.5454Z" fill="#030303"/>
</g>
<defs>
<clipPath id="clip0_11_6">
<rect width="127.66" height="40" fill="white"/>
</clipPath>
</defs>
</svg>
