<svg width="210" height="40" viewBox="0 0 210 40" fill="none" xmlns="http://www.w3.org/2000/svg">
<g clip-path="url(#clip0_11_12)">
<path fill-rule="evenodd" clip-rule="evenodd" d="M187.298 30.713L195.03 20.3122L187.898 10.4848H194.006L198.135 16.6163L202.302 10.4848H208.374L201.137 20.277L208.761 30.713H202.761L198.065 24.1134L193.511 30.713H187.298Z" fill="#030303"/>
<path fill-rule="evenodd" clip-rule="evenodd" d="M167.86 21.003C167.86 27.6792 171.506 31.2283 177.965 31.2283C184.01 31.2283 188.108 27.6792 188.108 21.003V20.4408C188.108 13.6942 183.94 9.96954 177.965 9.96954C172.132 9.96954 167.86 13.6239 167.86 20.4408V21.003ZM182.844 21.0045C182.844 24.7082 180.997 26.7189 177.965 26.7189C174.97 26.7189 173.124 24.673 173.124 21.0045V20.5107C173.124 16.5602 175.074 14.479 178.001 14.479C180.962 14.479 182.844 16.7013 182.844 20.5107V21.0045Z" fill="#030303"/>
<path fill-rule="evenodd" clip-rule="evenodd" d="M150.198 27.0134C151.294 29.6126 153.484 31.2283 156.842 31.2283C162.036 31.2283 165.429 27.4349 165.429 20.6912V20.0941C165.429 13.3504 161.825 10.0136 156.983 9.97849C153.767 9.97849 151.506 11.4186 150.375 14.0528V3.65625H145.18V30.7014H149.774L150.198 27.0134ZM160.164 20.7395C160.164 24.7491 158.311 26.7189 155.269 26.7189C152.368 26.7189 150.445 24.5381 150.445 20.7395V20.3174C150.445 16.8355 152.438 14.4789 155.339 14.4789C158.136 14.4789 160.164 16.5189 160.164 20.2472V20.7395Z" fill="#030303"/>
<path fill-rule="evenodd" clip-rule="evenodd" d="M122.097 10.5087V37.6704H127.282V27.4984C128.376 29.8616 130.528 31.3075 133.773 31.3075C138.571 31.3075 142.345 27.8158 142.345 21.1147V20.5504C142.345 13.7081 138.959 9.96954 133.773 9.96954C130.422 9.96954 128.164 11.6978 127.071 14.3077L126.541 10.5087H122.097ZM137.081 20.9858C137.081 24.7141 135.158 26.7189 132.151 26.7189C129.249 26.7189 127.361 24.4678 127.361 20.8803V20.4933C127.361 16.7299 129.319 14.479 132.256 14.479C135.018 14.479 137.081 16.4838 137.081 20.5285V20.9858Z" fill="#030303"/>
<path fill-rule="evenodd" clip-rule="evenodd" d="M99.0131 21.003C99.0131 27.6792 102.695 31.2283 109.155 31.2283C115.198 31.2283 119.262 27.6792 119.262 21.003V20.4408C119.262 13.6942 115.129 9.96954 109.155 9.96954C103.32 9.96954 99.0131 13.6239 99.0131 20.4408V21.003ZM113.997 21.0045C113.997 24.7082 112.116 26.7189 109.12 26.7189C106.124 26.7189 104.278 24.673 104.278 21.0045V20.5107C104.278 16.5602 106.229 14.479 109.155 14.479C112.116 14.479 113.997 16.7013 113.997 20.5107V21.0045Z" fill="#030303"/>
<path fill-rule="evenodd" clip-rule="evenodd" d="M84.8387 30.7131H90.1499V21.4205C90.1499 17.1263 91.2122 15.6128 95.6027 15.6128H97.7979V10.2274H96.4879C92.6994 10.2274 90.6103 11.8817 89.7959 15.12L89.1231 10.4839H84.8387V30.7131Z" fill="#030303"/>
<path fill-rule="evenodd" clip-rule="evenodd" d="M61.3505 5.71759V30.7128H70.9938C77.2754 30.7128 82.0044 27.064 82.0044 18.9949V17.2757C82.0044 9.24156 76.9932 5.71759 70.8527 5.71759H61.3505ZM66.6153 10.227H70.6325C74.2609 10.227 76.7396 12.5194 76.7396 17.5627V18.8677C76.7396 23.9109 74.3327 26.2034 70.8122 26.2034H66.6153V10.227Z" fill="#030303"/>
<path d="M12.4147 0.512512L0.859131 7.86133L12.4147 15.2101L23.9722 7.86133L35.5279 15.2101L47.0834 7.86133L35.5279 0.512512L23.9722 7.86133L12.4147 0.512512Z" fill="#030303"/>
<path d="M12.4147 29.908L0.859131 22.559L12.4147 15.2101L23.9722 22.559L12.4147 29.908Z" fill="#030303"/>
<path d="M23.9724 22.559L35.5281 15.2101L47.0836 22.559L35.5281 29.908L23.9724 22.559Z" fill="#030303"/>
<path d="M23.972 39.7062L12.4146 32.3574L23.972 25.0086L35.5277 32.3574L23.972 39.7062Z" fill="#030303"/>
</g>
<defs>
<clipPath id="clip0_11_12">
<rect width="209.6" height="40" fill="white" transform="translate(0.0935059)"/>
</clipPath>
</defs>
</svg>
