<svg width="223" height="40" viewBox="0 0 223 40" fill="none" xmlns="http://www.w3.org/2000/svg">
<g clip-path="url(#clip0_11_9)">
<path fill-rule="evenodd" clip-rule="evenodd" d="M156.13 30.709C155.451 30.7175 154.778 30.5911 154.148 30.3373C153.519 30.0834 152.946 29.7071 152.463 29.2302C151.494 28.2605 150.839 26.7878 150.839 24.7999C150.839 22.7878 151.494 21.3212 152.463 20.3515C152.948 19.8792 153.522 19.5076 154.151 19.2579C154.781 19.0083 155.453 18.8856 156.13 18.897C157.512 18.897 158.827 19.3818 159.797 20.3515C160.766 21.3212 161.415 22.7878 161.415 24.7999C161.415 26.8121 160.766 28.2787 159.797 29.2484C159.312 29.7207 158.738 30.0924 158.109 30.342C157.479 30.5916 156.807 30.7143 156.13 30.703V30.709ZM156.13 12.4667C149.112 12.4667 143.797 17.6302 143.797 24.7999C143.797 31.9211 149.112 37.1333 156.13 37.1333C163.148 37.1333 168.463 31.9211 168.463 24.7999C168.463 17.6302 163.148 12.4667 156.13 12.4667ZM97.7784 30.8788C97.0997 30.8872 96.4263 30.7608 95.7966 30.507C95.1675 30.2531 94.5948 29.8768 94.1118 29.3999C93.1421 28.4302 92.4936 26.9636 92.4936 24.9757C92.4936 22.9636 93.1481 21.4908 94.1118 20.5272C94.5972 20.0531 95.1718 19.68 95.8021 19.4293C96.4324 19.1786 97.1063 19.0553 97.7845 19.0666C99.1663 19.0666 100.481 19.5576 101.451 20.5212C102.421 21.4909 103.069 22.9636 103.069 24.9697C103.069 26.9818 102.415 28.4545 101.451 29.4182C100.966 29.8922 100.391 30.2654 99.7609 30.5161C99.1306 30.7668 98.4566 30.8901 97.7784 30.8788ZM97.7784 12.6364C90.7663 12.6364 85.4512 17.8061 85.4512 24.9697C85.4512 32.097 90.7663 37.303 97.7784 37.303C104.797 37.303 110.112 32.0909 110.112 24.9697C110.112 17.8061 104.797 12.6424 97.7845 12.6424L97.7784 12.6364ZM187.639 37.0545H194.639V23.1515C194.639 22 195.003 21 195.633 20.297C195.983 19.9167 196.411 19.6168 196.889 19.418C197.366 19.2192 197.88 19.1262 198.397 19.1454C199.657 19.1454 200.518 19.5696 201.069 20.2121C201.633 20.8666 201.918 21.8182 201.918 22.9697V37.0545H208.875V23.1515C208.875 22.0303 209.239 21.0302 209.869 20.309C210.21 19.9291 210.629 19.6281 211.098 19.427C211.568 19.2261 212.074 19.1299 212.584 19.1454C213.875 19.1454 214.73 19.5696 215.275 20.2121C215.833 20.8666 216.112 21.8182 216.112 22.9697V37.0545H222.93V21.7212C222.93 18.5879 221.9 16.303 220.269 14.8121C218.651 13.3273 216.494 12.6667 214.33 12.6667C212.784 12.6667 211.372 12.9333 210.106 13.5696C209.021 14.1151 208.069 14.9151 207.233 16.0303C205.881 13.8303 203.415 12.6667 200.506 12.6667C198.372 12.6667 195.918 13.5151 194.366 15.1515V13.2364H187.639V37.0545ZM185.003 13.2545V20.3878L184.457 20.2787C183.809 20.1514 183.245 20.103 182.724 20.103C181.239 20.103 179.918 20.4666 178.972 21.3514C178.033 22.2302 177.385 23.6909 177.385 26.0424V37.0545H170.403V13.2364H177.203V15.5393C178.881 13.5151 181.494 13.1151 183.136 13.1151C183.657 13.1151 184.136 13.1696 184.591 13.2121L185.003 13.2545ZM59.1239 25.5757H65.9481L66.0269 25.6545C66.0754 25.703 66.1118 25.7757 66.1178 25.8545C66.1475 26.4951 66.3039 27.1236 66.5784 27.7031C66.8536 28.2827 67.2409 28.8017 67.7178 29.2302C68.616 29.9633 69.7469 30.3504 70.9057 30.3211C71.5475 30.3427 72.1863 30.2242 72.7772 29.9741C73.3687 29.7239 73.8984 29.3481 74.33 28.8727C75.1687 27.8553 75.6063 26.5662 75.5603 25.2485V5.29693H82.9421V25.4545C82.9421 31.9091 78.0027 37.303 70.9542 37.303C67.4391 37.303 64.4815 36.1333 62.4087 34.103C60.3845 32.1212 59.1784 29.2909 59.1239 25.8485V25.5757ZM142.809 8.52726L143.197 8.64241V3.23632L143.015 3.15754C142.623 3.00177 142.214 2.89392 141.797 2.83632C141.281 2.75148 140.675 2.69693 140.057 2.69693C137.651 2.69693 134.948 3.49693 133.548 4.93329C132.148 6.36363 131.372 8.40605 131.372 10.8545V11.9939H127.857V18.2H131.372V37.0545H138.433V18.2H143.197V11.9939H138.433V10.9394C138.433 9.84241 138.815 9.20605 139.306 8.84241C139.83 8.48563 140.454 8.30514 141.088 8.32726C141.997 8.32726 142.53 8.44848 142.809 8.52726ZM125.33 31.4848L125.694 31.3696V36.7939L125.524 36.8787C125.269 36.9999 124.857 37.1151 124.378 37.2C123.894 37.2788 123.33 37.3333 122.742 37.3333C120.488 37.3333 117.954 36.5333 116.639 35.0909C115.324 33.6545 114.597 31.606 114.597 29.1514V18.2H111.294V12.0242H114.597V5.33329H121.221V12.0303H125.694V18.2121H121.221V29.0666C121.221 30.1696 121.584 30.806 122.045 31.1757C122.518 31.5575 123.142 31.6909 123.718 31.6909C124.572 31.6909 125.069 31.5696 125.33 31.4908V31.4848Z" fill="#030303"/>
<path d="M10.4633 38.0182C11.2148 38.7455 10.6815 40 9.61483 40H2.89968C2.27382 40.0081 1.67031 39.7676 1.22152 39.3314C0.77273 38.8951 0.515314 38.2986 0.505737 37.6727V31.1758C0.505737 30.1333 1.79665 29.6182 2.55422 30.3516L10.4633 38.0182Z" fill="#030303"/>
<path d="M20.9421 38.5213C20.4711 38.0537 20.0974 37.4976 19.8423 36.8849C19.5873 36.2722 19.4559 35.6152 19.4559 34.9516C19.4559 34.2879 19.5873 33.6308 19.8423 33.0182C20.0974 32.4056 20.4711 31.8494 20.9421 31.3819L28.1057 24.2667C29.0615 23.3185 30.3533 22.7865 31.6996 22.7865C33.046 22.7865 34.3377 23.3185 35.2936 24.2667C35.7645 24.7343 36.1383 25.2904 36.3933 25.9031C36.6484 26.5157 36.7797 27.1728 36.7797 27.8364C36.7797 28.5 36.6484 29.1571 36.3933 29.7697C36.1383 30.3824 35.7645 30.9385 35.2936 31.4061L28.1299 38.5213C27.1741 39.4694 25.8824 40.0015 24.536 40.0015C23.1897 40.0015 21.8979 39.4694 20.9421 38.5213Z" fill="#030303"/>
<path d="M2.02091 20.6364C1.54998 20.1688 1.17622 19.6127 0.921159 19.0001C0.666101 18.3874 0.53479 17.7303 0.53479 17.0667C0.53479 16.4031 0.666101 15.746 0.921159 15.1333C1.17622 14.5207 1.54998 13.9645 2.02091 13.497L14.0755 1.51516C15.0312 0.566968 16.3231 0.0349121 17.6694 0.0349121C19.0157 0.0349121 20.3075 0.566968 21.2634 1.51516C21.7343 1.98273 22.108 2.53887 22.3631 3.15151C22.6182 3.76417 22.7495 4.42123 22.7495 5.08486C22.7495 5.74849 22.6182 6.40557 22.3631 7.01823C22.108 7.63084 21.7343 8.18696 21.2634 8.65454L9.20276 20.6364C8.24718 21.5827 6.9567 22.1136 5.61182 22.1136C4.26696 22.1136 2.97646 21.5827 2.02091 20.6364Z" fill="#030303"/>
<path d="M11.8754 29.1818C11.4044 28.7142 11.0307 28.1581 10.7756 27.5454C10.5206 26.9328 10.3893 26.2757 10.3893 25.6121C10.3893 24.9485 10.5206 24.2914 10.7756 23.6787C11.0307 23.0661 11.4044 22.5099 11.8754 22.0424L28.1603 5.86056C29.116 4.91236 30.4078 4.38031 31.7542 4.38031C33.1005 4.38031 34.3923 4.91236 35.3481 5.86056C35.819 6.3281 36.1928 6.88429 36.4479 7.49689C36.7029 8.10956 36.8343 8.76665 36.8343 9.43029C36.8343 10.0939 36.7029 10.751 36.4479 11.3636C36.1928 11.9763 35.819 12.5324 35.3481 13L19.0633 29.1818C18.1075 30.13 16.8156 30.662 15.4693 30.662C14.123 30.662 12.8312 30.13 11.8754 29.1818Z" fill="#030303"/>
</g>
<defs>
<clipPath id="clip0_11_9">
<rect width="222.424" height="40" fill="white" transform="translate(0.505737)"/>
</clipPath>
</defs>
</svg>
