<svg width="207" height="40" viewBox="0 0 207 40" fill="none" xmlns="http://www.w3.org/2000/svg">
<g clip-path="url(#clip0_11_15)">
<path d="M43.5055 3.25483C40.1732 1.73075 36.6342 0.619967 32.9402 0C32.4752 0.8008 31.9585 1.88573 31.5968 2.7382C27.6678 2.16988 23.7672 2.16988 19.8923 2.7382C19.5307 1.88573 18.9882 0.8008 18.549 0C14.8293 0.619967 11.2903 1.73075 7.98118 3.25483C1.29068 13.1227 -0.517572 22.758 0.386551 32.2642C4.82966 35.4932 9.11783 37.4565 13.331 38.7482C14.3643 37.3532 15.2943 35.8548 16.0951 34.2792C14.571 33.7108 13.1244 33.0133 11.7295 32.1867C12.0911 31.9285 12.4528 31.6443 12.7886 31.3602C21.2098 35.2092 30.3312 35.2092 38.649 31.3602C39.0107 31.6443 39.3465 31.9285 39.7082 32.1867C38.3132 33.0133 36.8667 33.7108 35.3425 34.2792C36.1433 35.8548 37.0733 37.3532 38.1065 38.7482C42.3172 37.4565 46.6312 35.4932 51.051 32.2642C52.1617 21.2598 49.2918 11.702 43.5055 3.25483ZM17.2575 26.4003C14.7259 26.4003 12.6594 24.1013 12.6594 21.2857C12.6594 18.47 14.6743 16.1708 17.2575 16.1708C19.8148 16.1708 21.9072 18.47 21.8555 21.2857C21.8555 24.1013 19.8148 26.4003 17.2575 26.4003ZM34.2318 26.4003C31.7002 26.4003 29.631 24.1013 29.631 21.2857C29.631 18.47 31.6485 16.1708 34.2318 16.1708C36.7892 16.1708 38.8815 18.47 38.8298 21.2857C38.8298 24.1013 36.815 26.4003 34.2318 26.4003Z" fill="#030303"/>
<path d="M68.9527 8.11035H79.934C82.5689 8.11035 84.8162 8.5236 86.6504 9.35027C88.4844 10.1769 89.8535 11.3136 90.7577 12.7859C91.6617 14.2584 92.1267 15.9374 92.1267 17.8492C92.1267 19.709 91.6619 21.3882 90.706 22.9122C89.7502 24.4105 88.3037 25.6245 86.3662 26.5028C84.4289 27.3812 82.0264 27.8203 79.159 27.8203H68.9527V8.11035ZM79.0299 22.8088C80.8122 22.8088 82.1814 22.3697 83.1372 21.4657C84.093 20.5873 84.5839 19.3473 84.5839 17.8233C84.5839 16.4024 84.1447 15.2658 83.2922 14.4134C82.4397 13.5609 81.1482 13.1218 79.4174 13.1218H75.9817V22.8088H79.0299Z" fill="#030303"/>
<path d="M109.23 27.7957C107.706 27.4082 106.337 26.8398 105.122 26.0648V21.3892C106.052 22.1125 107.267 22.6808 108.817 23.1458C110.366 23.6108 111.865 23.8433 113.311 23.8433C113.983 23.8433 114.499 23.7658 114.835 23.585C115.171 23.4042 115.352 23.1975 115.352 22.9392C115.352 22.655 115.249 22.4225 115.068 22.2417C114.887 22.0608 114.525 21.9058 113.983 21.7508L110.599 21.0018C108.661 20.5627 107.292 19.9168 106.466 19.1418C105.639 18.3668 105.252 17.3078 105.252 16.0161C105.252 14.9311 105.613 13.9754 106.311 13.1746C107.034 12.3738 108.042 11.7538 109.359 11.3146C110.676 10.8756 112.201 10.6431 113.983 10.6431C115.559 10.6431 117.005 10.7981 118.323 11.1598C119.64 11.4954 120.725 11.9346 121.578 12.4513V16.8687C120.699 16.3519 119.666 15.9386 118.529 15.6286C117.367 15.3186 116.179 15.1636 114.964 15.1636C113.208 15.1636 112.33 15.4736 112.33 16.0678C112.33 16.3519 112.459 16.5586 112.743 16.7137C113.027 16.8687 113.518 16.9978 114.241 17.1528L117.057 17.6695C118.891 17.9793 120.26 18.5477 121.164 19.3485C122.068 20.1493 122.508 21.3117 122.508 22.8875C122.508 24.5925 121.758 25.9615 120.26 26.9432C118.762 27.9507 116.644 28.4413 113.905 28.4413C112.304 28.3897 110.754 28.183 109.23 27.7957Z" fill="#030303"/>
<path d="M129.485 27.2023C127.883 26.4015 126.644 25.3425 125.843 23.9992C125.016 22.6558 124.629 21.1317 124.629 19.4267C124.629 17.7477 125.042 16.2236 125.894 14.9062C126.747 13.5629 127.987 12.5296 129.614 11.7547C131.242 11.0056 133.205 10.6181 135.478 10.6181C138.294 10.6181 140.619 11.2122 142.479 12.4004V17.541C141.833 17.1018 141.058 16.7143 140.18 16.4561C139.301 16.1719 138.371 16.0427 137.39 16.0427C135.633 16.0427 134.29 16.3527 133.282 16.9985C132.301 17.6443 131.81 18.471 131.81 19.5042C131.81 20.5117 132.275 21.3383 133.257 21.9842C134.212 22.6298 135.607 22.9657 137.416 22.9657C138.345 22.9657 139.275 22.8367 140.18 22.5525C141.084 22.2683 141.884 21.9583 142.53 21.545V26.5307C140.464 27.7707 138.061 28.3905 135.349 28.3905C133.05 28.3905 131.112 27.9773 129.485 27.2023Z" fill="#030303"/>
<path d="M149.843 27.2023C148.216 26.4015 146.976 25.3423 146.123 23.9732C145.271 22.604 144.832 21.08 144.832 19.375C144.832 17.696 145.271 16.1719 146.123 14.8546C146.976 13.5371 148.216 12.5037 149.817 11.7547C151.419 11.0056 153.356 10.6181 155.58 10.6181C157.802 10.6181 159.739 10.9797 161.341 11.7547C162.942 12.5037 164.182 13.5371 165.035 14.8546C165.887 16.1719 166.301 17.6702 166.301 19.375C166.301 21.0542 165.887 22.604 165.035 23.9732C164.182 25.3423 162.968 26.4273 161.341 27.2023C159.713 27.9773 157.802 28.3905 155.58 28.3905C153.382 28.3905 151.47 27.9773 149.843 27.2023ZM158.396 22.2167C159.068 21.5452 159.429 20.615 159.429 19.5042C159.429 18.3677 159.093 17.4893 158.396 16.8177C157.699 16.1461 156.769 15.8102 155.606 15.8102C154.392 15.8102 153.459 16.1461 152.762 16.8177C152.09 17.4893 151.729 18.3677 151.729 19.5042C151.729 20.6408 152.065 21.5452 152.762 22.2167C153.459 22.9142 154.392 23.2498 155.606 23.2498C156.769 23.224 157.724 22.8883 158.396 22.2167Z" fill="#030303"/>
<path d="M183.583 11.6501V17.7208C182.86 17.2558 181.93 17.0233 180.793 17.0233C179.295 17.0233 178.131 17.4883 177.331 18.3923C176.53 19.2965 176.116 20.7173 176.116 22.6288V27.7953H169.22V11.3659H175.988V16.6099C176.35 14.6983 176.97 13.2776 177.796 12.3734C178.623 11.4693 179.708 10.9786 181.025 10.9786C182.006 10.9786 182.86 11.2111 183.583 11.6501Z" fill="#030303"/>
<path d="M206.836 7.54272V27.8208H199.94V24.1268C199.345 25.5218 198.466 26.581 197.278 27.3042C196.088 28.0275 194.615 28.3892 192.858 28.3892C191.308 28.3892 189.94 28.0017 188.776 27.2525C187.615 26.5035 186.711 25.4443 186.091 24.1268C185.471 22.7837 185.161 21.2853 185.161 19.6322C185.135 17.9013 185.471 16.3515 186.168 14.9823C186.84 13.6133 187.821 12.5542 189.061 11.7792C190.301 11.0042 191.721 10.6167 193.323 10.6167C196.605 10.6167 198.803 12.0375 199.94 14.9048V7.54272H206.836ZM198.906 22.0862C199.603 21.4145 199.965 20.5103 199.965 19.4255C199.965 18.3663 199.63 17.5138 198.931 16.8682C198.235 16.2223 197.305 15.8865 196.14 15.8865C194.976 15.8865 194.046 16.2223 193.35 16.894C192.651 17.5655 192.316 18.418 192.316 19.503C192.316 20.5878 192.651 21.4403 193.35 22.112C194.046 22.7837 194.951 23.1195 196.113 23.1195C197.278 23.1195 198.208 22.7837 198.906 22.0862Z" fill="#030303"/>
<path d="M98.4837 12.3485C100.465 12.3485 102.074 10.9027 102.074 9.1195C102.074 7.33607 100.465 5.8905 98.4837 5.8905C96.4997 5.8905 94.893 7.33607 94.893 9.1195C94.893 10.9027 96.4997 12.3485 98.4837 12.3485Z" fill="#030303"/>
<path d="M102.074 14.5683C99.8785 15.524 97.1403 15.5498 94.893 14.5683V27.8202H102.074V14.5683Z" fill="#030303"/>
</g>
<defs>
<clipPath id="clip0_11_15">
<rect width="206.667" height="40" fill="white" transform="translate(0.169678)"/>
</clipPath>
</defs>
</svg>
