<svg width="176" height="40" viewBox="0 0 176 40" fill="none" xmlns="http://www.w3.org/2000/svg">
<g clip-path="url(#clip0_11_14)">
<path d="M23.5125 14.7429H33.9887V33.2952H0.693481V14.7429H11.1697V24H23.4744V14.7429H23.5125ZM58.9411 24.2286C58.9411 27.3905 56.884 29.219 54.0268 29.219C51.2459 29.219 49.1506 27.3524 49.1506 24.2286V9.29524H44.503V24.1905C44.503 30.0571 48.6935 33.7905 54.0649 33.7905C59.4744 33.7905 63.6268 30.0571 63.6268 24.1905V9.29524H58.9792V24.2286H58.9411ZM75.5887 16.1905C73.7983 16.1905 71.8173 16.9524 70.7887 18.7048V16.6476H66.4459V33.2952H70.9411V23.6952C70.9411 21.7524 72.084 20.2286 74.0649 20.2286C76.2363 20.2286 77.1506 21.6762 77.1506 23.5429V33.2571H81.6459V22.7809C81.6078 19.1238 79.703 16.1905 75.5887 16.1905ZM92.084 23.2C92.084 23.2 90.5602 22.8952 89.6078 22.7048C88.6554 22.5143 88.084 22.019 88.084 21.219C88.084 20.2667 88.9221 19.581 90.103 19.581C91.7792 19.581 92.4268 20.419 92.5792 21.4476H96.4649C96.4268 19.1619 94.6363 16.1905 90.1792 16.1905C86.5982 16.1905 83.9697 18.6667 83.9697 21.6381C83.9697 23.9619 85.4173 25.9048 88.6173 26.5905L90.903 27.0857C92.1983 27.3524 92.6935 27.9619 92.6935 28.7238C92.6935 29.6 91.8935 30.3619 90.4078 30.3619C88.6173 30.3619 87.6268 29.3333 87.3983 28.1524H83.3983C83.6268 30.6286 85.4173 33.7905 90.4459 33.7905C94.7887 33.7905 96.9983 31.0095 96.9983 28.3048C97.0363 25.8667 95.3602 23.8857 92.084 23.2ZM116.16 24.9143C116.16 29.9429 112.998 33.6762 108.313 33.6762C106.027 33.6762 104.313 32.7619 103.513 31.6571V39.6952H99.0173V16.6476H103.36V18.7048C104.122 17.4095 105.951 16.2667 108.465 16.2667C113.341 16.2667 116.16 20 116.16 24.9143ZM111.741 24.9524C111.741 22.019 109.913 20.3048 107.627 20.3048C105.341 20.3048 103.474 22.019 103.474 24.9524C103.474 27.8857 105.341 29.6381 107.627 29.6381C109.913 29.6381 111.741 27.9238 111.741 24.9524ZM137.646 16.6476H141.989V33.2952H137.493V31.2381C136.732 32.5714 134.979 33.6762 132.693 33.6762C128.008 33.6762 124.846 29.9429 124.846 24.9143C124.846 19.9619 127.665 16.2667 132.503 16.2667C135.017 16.2667 136.808 17.4095 137.608 18.7048V16.6476H137.646ZM137.57 24.9524C137.57 22.019 135.703 20.3048 133.417 20.3048C131.132 20.3048 129.303 22.019 129.303 24.9524C129.303 27.9238 131.132 29.6381 133.417 29.6381C135.703 29.6381 137.57 27.8857 137.57 24.9524ZM118.255 33.2571H122.751V9.29524H118.255V33.2571ZM168.693 16.1905C167.093 16.1905 165.265 16.7238 164.198 18.019V9.29524H159.703V33.2571H164.198V23.5048C164.313 21.6762 165.417 20.2667 167.322 20.2667C169.493 20.2667 170.408 21.7143 170.408 23.5809V33.2952H174.903V22.819C174.865 19.1238 172.922 16.1905 168.693 16.1905ZM152.693 23.2C152.693 23.2 151.17 22.8952 150.217 22.7048C149.265 22.5143 148.693 22.019 148.693 21.219C148.693 20.2667 149.532 19.581 150.713 19.581C152.389 19.581 153.036 20.419 153.189 21.4476H157.074C157.036 19.1619 155.246 16.1905 150.789 16.1905C147.208 16.1905 144.579 18.6667 144.579 21.6381C144.579 23.9619 146.027 25.9048 149.227 26.5905L151.513 27.0857C152.808 27.3524 153.303 27.9619 153.303 28.7238C153.303 29.6 152.503 30.3619 151.017 30.3619C149.227 30.3619 148.236 29.3333 148.008 28.1524H144.008C144.236 30.6286 146.027 33.7905 151.055 33.7905C155.398 33.7905 157.608 31.0095 157.608 28.3048C157.646 25.8667 155.97 23.8857 152.693 23.2ZM23.5125 0H11.1697V9.29524H23.4744V0H23.5125Z" fill="#030303"/>
</g>
<defs>
<clipPath id="clip0_11_14">
<rect width="174.476" height="40" fill="white" transform="translate(0.693481)"/>
</clipPath>
</defs>
</svg>
