<svg width="195" height="40" viewBox="0 0 195 40" fill="none" xmlns="http://www.w3.org/2000/svg">
<g clip-path="url(#clip0_11_8)">
<path fill-rule="evenodd" clip-rule="evenodd" d="M35.198 0.161896H5.63027C3.08664 0.161896 1.02364 2.2221 1.02018 4.76573V34.29C1.01526 35.5159 1.49877 36.6932 2.36386 37.5619C3.22895 38.4305 4.40438 38.9186 5.63027 38.9186H35.198C36.4228 38.9171 37.5966 38.428 38.4605 37.5597C39.3242 36.6912 39.8068 35.5148 39.8019 34.29V4.76573C39.7985 2.22452 37.7393 0.165317 35.198 0.161896ZM17.7457 28.0769C17.744 28.4868 17.5793 28.8789 17.2877 29.1669C16.9963 29.4549 16.6022 29.6149 16.1923 29.6117H9.73087C8.88575 29.6082 8.20247 28.9222 8.20247 28.0769V8.84769C8.20247 8.00256 8.88575 7.3165 9.73087 7.31307H16.1923C17.0385 7.31649 17.7236 8.00156 17.7269 8.84769L17.7457 28.0769ZM32.6569 19.2483C32.6569 19.6585 32.4926 20.0517 32.2008 20.34C31.909 20.6285 31.5139 20.7879 31.1037 20.7831H24.6422C23.796 20.7796 23.1109 20.0945 23.1076 19.2483V8.84769C23.1109 8.00156 23.796 7.31649 24.6422 7.31307H31.1037C31.9488 7.3165 32.632 8.00256 32.632 8.84769L32.6569 19.2483Z" fill="#030303"/>
<path d="M81.3792 3.00125V10.4941H72.5008V38.9188H63.9393V10.4941H55.0608V3.00125H81.3792Z" fill="#030303"/>
<path d="M92.2767 38.9188H84.3613V10.9601H92.2767V16.3158C93.7804 12.5445 96.1847 10.3016 100.465 10.5749V18.8569C94.8738 18.422 92.2767 19.7889 92.2767 24.2684V38.9188Z" fill="#030303"/>
<path d="M143.708 39.1362C138.52 39.1362 135.259 36.6509 135.259 30.7734V0.161896H143.23V29.68C143.23 31.3762 144.348 31.9788 145.715 31.9788C146.109 31.9868 146.504 31.968 146.895 31.9228V38.8131C145.853 39.0671 144.78 39.1757 143.708 39.1362Z" fill="#030303"/>
<path d="M160.333 39.1362C155.146 39.1362 151.878 36.6509 151.878 30.7734V0.161896H159.849V29.68C159.849 31.3762 160.973 31.9788 162.366 31.9788C162.758 31.9869 163.15 31.9682 163.539 31.9228V38.8131C162.492 39.0694 161.412 39.1782 160.333 39.1362Z" fill="#030303"/>
<path d="M167.361 24.9271C167.361 16.2909 172.332 10.3824 180.893 10.3824C189.455 10.3824 194.32 16.2723 194.32 24.9271C194.32 33.5818 189.398 39.5774 180.893 39.5774C172.387 39.5774 167.361 33.5072 167.361 24.9271ZM175.121 24.9271C175.121 29.1332 176.886 32.4697 180.893 32.4697C184.901 32.4697 186.566 29.1332 186.566 24.9271C186.566 20.7208 184.856 17.4714 180.893 17.4714C176.929 17.4714 175.121 20.7146 175.121 24.9271Z" fill="#030303"/>
<path d="M111.152 27.4555C113.368 27.6991 115.595 27.8297 117.825 27.8469C123.889 27.8469 129.008 26.2192 129.008 20.3478C129.008 14.6506 123.746 10.3698 117.415 10.3698C108.89 10.3698 103.429 16.5517 103.429 25.1878C103.429 34.1532 108.139 39.4777 118.782 39.4777C121.939 39.5035 125.074 38.9431 128.027 37.8251V31.1275C125.293 32.0035 122.217 32.8734 119.061 32.8734C114.824 32.8734 111.873 31.4815 111.152 27.4555ZM117.253 16.4709C119.496 16.4709 121.298 17.9931 121.298 20.0745C121.298 22.7523 118.471 23.5911 115.215 23.5911C113.83 23.5848 112.447 23.4746 111.077 23.2618C111.181 21.9563 111.555 20.6866 112.177 19.534C113.193 17.6738 115.134 16.5074 117.253 16.4834V16.4709Z" fill="#030303"/>
</g>
<defs>
<clipPath id="clip0_11_8">
<rect width="193.846" height="40" fill="white" transform="translate(0.659546)"/>
</clipPath>
</defs>
</svg>
