<svg width="161" height="40" viewBox="0 0 161 40" fill="none" xmlns="http://www.w3.org/2000/svg">
<g clip-path="url(#clip0_11_13)">
<path d="M51.1355 31.6515L53.0882 27.0875C55.2262 28.6709 58.0149 29.509 60.8042 29.509C62.8494 29.509 64.1509 28.7176 64.1509 27.5069C64.1042 24.1536 51.8328 26.7616 51.7395 18.3309C51.6928 14.0463 55.5048 10.7396 60.8974 10.7396C64.1042 10.7396 67.3122 11.5316 69.5895 13.3483L67.7648 18.0096C65.6695 16.6622 63.0814 15.7229 60.6182 15.7229C58.9448 15.7229 57.8288 16.5142 57.8288 17.5395C57.8755 20.8462 70.2408 19.0296 70.3802 27.0875C70.3802 31.4656 66.6608 34.5395 61.3614 34.5395C57.4574 34.5395 53.8782 33.6083 51.1349 31.6515H51.1355ZM128.888 25.4349C128.395 26.3107 127.678 27.0395 126.81 27.5469C125.943 28.0541 124.956 28.3214 123.951 28.3216C120.819 28.3216 118.28 25.7776 118.28 22.6395C118.28 19.5016 120.819 16.9576 123.951 16.9576C124.956 16.9576 125.943 17.2251 126.81 17.7323C127.678 18.2395 128.395 18.9685 128.888 19.8443L134.316 16.8309C132.283 13.1969 128.404 10.7396 123.951 10.7396C117.392 10.7396 112.074 16.0669 112.074 22.6395C112.074 29.2115 117.392 34.5395 123.951 34.5395C128.404 34.5395 132.283 32.0822 134.316 28.4483L128.888 25.4349ZM73.9029 34.0736H80.6895V0.833588H73.9035L73.9029 34.0736ZM137.744 0.833588V34.0736H144.53V24.1149L152.572 34.0736H161.247L151.02 22.2429L160.503 11.2036H152.2L144.53 20.3816V0.833588H137.744ZM101.598 11.2049V13.9069C100.483 12.0436 97.7402 10.7396 94.8582 10.7396C88.9082 10.7396 84.2134 16.0029 84.2134 22.6163C84.2134 29.2296 88.9082 34.5395 94.8582 34.5395C97.7402 34.5395 100.483 33.2355 101.598 31.3723V34.0736H108.385V11.2049H101.598ZM101.598 25.481C100.622 27.1109 98.5768 28.321 96.2995 28.321C93.1669 28.321 90.6282 25.7776 90.6282 22.6395C90.6282 19.5016 93.1669 16.9576 96.2995 16.9576C98.5768 16.9576 100.622 18.2149 101.598 19.8909V25.481Z" fill="#030303"/>
<path d="M15.2948 0.0989685C13.0955 0.0989685 11.3128 1.88563 11.3128 4.08897C11.3123 4.61241 11.4149 5.13085 11.6147 5.61465C11.8145 6.09846 12.1077 6.53816 12.4775 6.90867C12.8472 7.27918 13.2863 7.57323 13.7697 7.77403C14.2531 7.97483 14.7714 8.07845 15.2948 8.07897H19.2775V4.08897C19.2784 3.03176 18.8592 2.01748 18.1124 1.26923C17.3655 0.520977 16.352 0.100029 15.2948 0.0989685ZM15.2948 10.739H4.67548C2.47615 10.739 0.693481 12.5256 0.693481 14.7296C0.693481 16.9329 2.47615 18.7197 4.67548 18.7197H15.2955C17.4941 18.7197 19.2775 16.9329 19.2775 14.7296C19.2775 12.5256 17.4941 10.739 15.2948 10.739Z" fill="#030303"/>
<path d="M40.5163 14.7296C40.5163 12.5256 38.7329 10.739 36.5335 10.739C34.3342 10.739 32.5516 12.5256 32.5516 14.7296V18.7197H36.5335C37.5908 18.7185 38.6042 18.2976 39.3511 17.5494C40.098 16.8011 40.5171 15.7868 40.5163 14.7296ZM29.8969 14.7296V4.08897C29.8977 3.03176 29.4786 2.01748 28.7318 1.26923C27.9849 0.520977 26.9715 0.100029 25.9142 0.0989685C23.7148 0.0989685 21.9323 1.88563 21.9323 4.08897V14.729C21.9323 16.9336 23.7148 18.7203 25.9142 18.7203C26.9715 18.7192 27.9849 18.2982 28.7318 17.5501C29.4786 16.8017 29.8977 15.7875 29.8969 14.7303" fill="#030303"/>
<path d="M25.9142 40.0003C26.9715 39.9994 27.9849 39.5784 28.7318 38.8301C29.4787 38.0819 29.8977 37.0675 29.8969 36.0104C29.8977 34.9531 29.4787 33.9389 28.7318 33.1906C27.9849 32.4424 26.9715 32.0215 25.9142 32.0203H21.9323V36.0104C21.9323 38.2138 23.7148 40.0003 25.9142 40.0003ZM25.9142 29.3603H36.5342C38.7329 29.3603 40.5163 27.5738 40.5163 25.3698C40.5171 24.3125 40.098 23.2983 39.3511 22.5499C38.6042 21.8018 37.5908 21.3808 36.5335 21.3797H25.9142C23.7148 21.3797 21.9323 23.1664 21.9323 25.3698C21.9316 25.8931 22.0343 26.4115 22.2342 26.8954C22.4339 27.3792 22.7271 27.8189 23.0969 28.1895C23.4667 28.5599 23.9057 28.8539 24.3892 29.0547C24.8726 29.2555 25.3908 29.3592 25.9142 29.3597" fill="#030303"/>
<path d="M0.693483 25.3698C0.692958 25.8931 0.795539 26.4115 0.995368 26.8954C1.1952 27.3792 1.48836 27.8189 1.85813 28.1895C2.22789 28.5599 2.667 28.8539 3.15041 29.0547C3.63382 29.2555 4.15204 29.3592 4.67548 29.3597C5.7327 29.3586 6.7462 28.9376 7.49308 28.1895C8.23995 27.4411 8.65903 26.4269 8.65815 25.3698V21.3797H4.67548C2.47615 21.3797 0.693483 23.1664 0.693483 25.3698ZM11.3128 25.3698V36.0098C11.3128 38.2138 13.0955 40.0003 15.2948 40.0003C16.352 39.9994 17.3655 39.5784 18.1124 38.8301C18.8592 38.0819 19.2784 37.0675 19.2775 36.0104V25.3698C19.278 24.8463 19.1754 24.3277 18.9756 23.8439C18.7757 23.36 18.4824 22.9203 18.1127 22.5498C17.7428 22.1792 17.3036 21.8853 16.82 21.6845C16.3366 21.4837 15.8183 21.3802 15.2948 21.3797C13.0955 21.3797 11.3128 23.1664 11.3128 25.3698Z" fill="#030303"/>
</g>
<defs>
<clipPath id="clip0_11_13">
<rect width="160" height="40" fill="white" transform="translate(0.693481)"/>
</clipPath>
</defs>
</svg>
