<svg width="117" height="40" viewBox="0 0 117 40" fill="none" xmlns="http://www.w3.org/2000/svg">
<g clip-path="url(#clip0_11_7)">
<path d="M3.06621 1.72518L25.1995 0.0905076C27.9182 -0.142826 28.6169 0.0145077 30.3262 1.25717L37.3915 6.23451C38.5569 7.09051 38.9449 7.32384 38.9449 8.25584V35.5532C38.9449 37.2639 38.3235 38.2759 36.1489 38.4306L10.4462 39.9866C8.81421 40.0639 8.03688 39.8306 7.18221 38.7412L1.97955 31.9759C1.04621 30.7306 0.659546 29.7986 0.659546 28.7092V4.44518C0.659546 3.04651 1.28088 1.87984 3.06621 1.72518Z" fill="white"/>
<path fill-rule="evenodd" clip-rule="evenodd" d="M25.1995 0.0905076L3.06621 1.72518C1.28088 1.87984 0.659546 3.04651 0.659546 4.44518V28.7092C0.659546 29.7986 1.04621 30.7306 1.97955 31.9759L7.18221 38.7412C8.03688 39.8306 8.81421 40.0639 10.4462 39.9866L36.1489 38.4306C38.3222 38.2759 38.9449 37.2639 38.9449 35.5532V8.25584C38.9449 7.37184 38.5955 7.11718 37.5675 6.36251C37.5083 6.3199 37.4493 6.27723 37.3902 6.23451L30.3262 1.25717C28.6169 0.0145077 27.9182 -0.142826 25.1995 0.0905076ZM11.0275 7.80918C8.92888 7.95051 8.45288 7.98251 7.26088 7.01318L4.23021 4.60251C3.92221 4.29051 4.07688 3.90118 4.85288 3.82385L26.1302 2.26918C27.9169 2.11318 28.8475 2.73585 29.5462 3.27985L33.1955 5.92384C33.3515 6.00251 33.7395 6.46784 33.2729 6.46784L11.2995 7.79051L11.0275 7.80918ZM8.58088 35.3199V12.1465C8.58088 11.1345 8.89154 10.6678 9.82221 10.5892L35.0595 9.11185C35.9155 9.03451 36.3022 9.57851 36.3022 10.5892V33.6079C36.3022 34.6199 36.1462 35.4759 34.7489 35.5532L10.5982 36.9532C9.20088 37.0306 8.58088 36.5652 8.58088 35.3199ZM32.4209 13.3892C32.5755 14.0892 32.4209 14.7892 31.7209 14.8692L30.5569 15.0999V32.2092C29.5462 32.7532 28.6155 33.0639 27.8382 33.0639C26.5955 33.0639 26.2849 32.6746 25.3542 31.5092L17.7422 19.5332V31.1199L20.1502 31.6652C20.1502 31.6652 20.1502 33.0652 18.2075 33.0652L12.8515 33.3759C12.6955 33.0639 12.8515 32.2866 13.3942 32.1319L14.7929 31.7439V16.4239L12.8515 16.2666C12.6955 15.5666 13.0835 14.5559 14.1715 14.4772L19.9182 14.0906L27.8382 26.2212V15.4892L25.8195 15.2572C25.6635 14.3999 26.2849 13.7772 27.0609 13.7012L32.4209 13.3892Z" fill="#030303"/>
<path d="M51.1051 28.3346V17.788H51.2878L58.8931 28.3346H61.2878V12.836H58.6251V23.372H58.4424L50.8371 12.836H48.4331V28.3333H51.1064L51.1051 28.3346ZM68.8131 28.572C72.3264 28.572 74.4638 26.2733 74.4638 22.46C74.4638 18.6573 72.3158 16.348 68.8131 16.348C65.3224 16.348 63.1638 18.668 63.1638 22.46C63.1638 26.2733 65.2904 28.572 68.8131 28.572ZM68.8131 26.3373C66.9558 26.3373 65.8931 24.92 65.8931 22.46C65.8931 20.0107 66.9558 18.5827 68.8131 18.5827C70.6611 18.5827 71.7238 20.0107 71.7238 22.46C71.7238 24.92 70.6718 26.3373 68.8131 26.3373ZM76.8971 13.7067V16.66H75.0398V18.7867H76.8971V25.1987C76.8971 27.476 77.9718 28.3893 80.6678 28.3893C81.1824 28.3893 81.6771 28.336 82.0638 28.26V26.176C81.7411 26.208 81.5371 26.2293 81.1611 26.2293C80.0451 26.2293 79.5504 25.7147 79.5504 24.5547V18.7867H82.0638V16.66H79.5504V13.7053H76.8971V13.7067ZM83.6598 28.3346H86.3131V16.584H83.6598V28.3346ZM84.9811 14.6413C85.8611 14.6413 86.5704 13.9307 86.5704 13.04C86.5704 12.148 85.8624 11.428 84.9811 11.428C84.1118 11.428 83.3918 12.148 83.3918 13.04C83.3918 13.9307 84.1118 14.64 84.9811 14.64V14.6413ZM93.5918 28.572C97.1038 28.572 99.2411 26.2733 99.2411 22.46C99.2411 18.6573 97.0931 16.348 93.5918 16.348C90.0998 16.348 87.9411 18.668 87.9411 22.46C87.9411 26.2733 90.0678 28.572 93.5918 28.572ZM93.5918 26.3373C91.7331 26.3373 90.6691 24.92 90.6691 22.46C90.6691 20.0107 91.7331 18.5827 93.5918 18.5827C95.4384 18.5827 96.5024 20.0107 96.5024 22.46C96.5024 24.92 95.4491 26.3373 93.5918 26.3373ZM100.826 28.3346H103.49V21.4933C103.49 19.764 104.49 18.668 106.078 18.668C107.701 18.668 108.452 19.5707 108.452 21.364V28.3346H111.117V20.7307C111.117 17.9267 109.688 16.348 107.068 16.348C105.316 16.348 104.134 17.1533 103.576 18.464H103.393V16.584H100.826V28.3346Z" fill="#030303"/>
</g>
<defs>
<clipPath id="clip0_11_7">
<rect width="116" height="40" fill="white" transform="translate(0.659546)"/>
</clipPath>
</defs>
</svg>
